<?xml version="1.0" encoding="UTF-8"?>
<svg version="1.1" xmlns="http://www.w3.org/2000/svg" width="36" height="36">
<path d="M0 0 C2.21124066 4.42248132 1.52705083 10.56394614 0.50390625 15.29296875 C-1.73528673 21.8334364 -6.07352259 26.25598471 -11 31 C-13 30 -13 30 -15 28 C-15.66 27.67 -16.32 27.34 -17 27 C-23.34250318 19.77850861 -25.23319398 13.93959873 -25.16796875 4.390625 C-25 2 -25 2 -24 0 C-17.0710255 -3.37085246 -6.9289745 -3.37085246 0 0 Z M-20 8 C-19.67 8.66 -19.34 9.32 -19 10 C-18.67 9.34 -18.34 8.68 -18 8 C-18.66 8 -19.32 8 -20 8 Z M-13 12 C-12.67 12.66 -12.34 13.32 -12 14 C-11.67 13.34 -11.34 12.68 -11 12 C-11.66 12 -12.32 12 -13 12 Z " fill="#3090B4" transform="translate(30,4)"/>
<path d="M0 0 C-0.33 0.99 -0.66 1.98 -1 3 C-1.99 3.33 -2.98 3.66 -4 4 C-4.3721042 5.32303717 -4.70630173 6.65737935 -5 8 C-5.99 8.495 -5.99 8.495 -7 9 C-6.67 9.99 -6.34 10.98 -6 12 C-5.65772583 13.33106622 -5.32248257 14.66400079 -5 16 C-5.99 16.33 -6.98 16.66 -8 17 C-8 16.34 -8 15.68 -8 15 C-8.99 15 -9.98 15 -11 15 C-11.103125 15.763125 -11.20625 16.52625 -11.3125 17.3125 C-12.04364039 20.17059424 -12.76951913 21.15742885 -15 23 C-15.66 20.69 -16.32 18.38 -17 16 C-17.66 16 -18.32 16 -19 16 C-19 12.04 -19 8.08 -19 4 C-19.66 4 -20.32 4 -21 4 C-22.34882408 3.36525925 -23.6846659 2.70151152 -25 2 C-24 0 -24 0 -21.6875 -1.125 C-14.54131644 -2.82070457 -6.81041456 -3.02685092 0 0 Z M-13 12 C-12.67 12.66 -12.34 13.32 -12 14 C-11.67 13.34 -11.34 12.68 -11 12 C-11.66 12 -12.32 12 -13 12 Z " fill="#59BDD6" transform="translate(30,4)"/>
<path d="M0 0 C0.40436343 8.14717425 0.45095254 15.05605424 -5.1875 21.5 C-5.785625 21.995 -6.38375 22.49 -7 23 C-10 22 -10 22 -11 21 C-12.32594105 20.63837971 -13.65938457 20.30271961 -15 20 C-14.67 18.68 -14.34 17.36 -14 16 C-13.34 16 -12.68 16 -12 16 C-12 15.01 -12 14.02 -12 13 C-11.01 13 -10.02 13 -9 13 C-9 13.66 -9 14.32 -9 15 C-8.34 14.67 -7.68 14.34 -7 14 C-7.33 13.01 -7.66 12.02 -8 11 C-8.34227417 9.66893378 -8.67751743 8.33599921 -9 7 C-8.01 6.34 -7.02 5.68 -6 5 C-6 3.68 -6 2.36 -6 1 C-3.92446352 0.4465236 -2.15634036 0 0 0 Z " fill="#51B1CF" transform="translate(31,6)"/>
<path d="M0 0 C4.455 0.99 4.455 0.99 9 2 C8.67 2.99 8.34 3.98 8 5 C7.01 5.33 6.02 5.66 5 6 C4.6278958 7.32303717 4.29369827 8.65737935 4 10 C3.01 10.495 3.01 10.495 2 11 C2.33 11.99 2.66 12.98 3 14 C3.34227417 15.33106622 3.67751743 16.66400079 4 18 C3.01 18.33 2.02 18.66 1 19 C1 18.34 1 17.68 1 17 C0.34 17 -0.32 17 -1 17 C-1.33 15.02 -1.66 13.04 -2 11 C-2.66 11 -3.32 11 -4 11 C-4 10.34 -4 9.68 -4 9 C-4.66 9 -5.32 9 -6 9 C-5.67 7.35 -5.34 5.7 -5 4 C-4.01 4 -3.02 4 -2 4 C-2.33 5.65 -2.66 7.3 -3 9 C-2.34 9 -1.68 9 -1 9 C-1 7.35 -1 5.7 -1 4 C-0.34 5.32 0.32 6.64 1 8 C1 6.68 1 5.36 1 4 C0.34 3.67 -0.32 3.34 -1 3 C-0.67 2.01 -0.34 1.02 0 0 Z " fill="#81D1DD" transform="translate(21,2)"/>
<path d="M0 0 C0.33 0.99 0.66 1.98 1 3 C1.99 3.33 2.98 3.66 4 4 C4 5.65 4 7.3 4 9 C2.33333333 9 0.66666667 9 -1 9 C-0.67 7.35 -0.34 5.7 0 4 C-0.84304687 4.16757813 -1.68609375 4.33515625 -2.5546875 4.5078125 C-3.65039062 4.71148438 -4.74609375 4.91515625 -5.875 5.125 C-6.96554688 5.33382813 -8.05609375 5.54265625 -9.1796875 5.7578125 C-10.57574219 5.87769531 -10.57574219 5.87769531 -12 6 C-12.66 5.34 -13.32 4.68 -14 4 C-13 2 -13 2 -10.375 0.875 C-6.78189212 -0.05654649 -3.69584376 -0.14783375 0 0 Z " fill="#5EB7D0" transform="translate(19,2)"/>
<path d="M0 0 C0.66 0 1.32 0 2 0 C2.10957031 0.88042969 2.21914062 1.76085938 2.33203125 2.66796875 C2.49058594 3.82941406 2.64914063 4.99085937 2.8125 6.1875 C2.96332031 7.33605469 3.11414063 8.48460937 3.26953125 9.66796875 C4.46579848 15.12473853 7.48629307 18.75931922 11 23 C10.67 23.66 10.34 24.32 10 25 C5.56955193 22.78477597 2.70373193 17.47143949 0.625 13.125 C-0.25298066 8.7350967 -0.15867254 4.46046134 0 0 Z " fill="#519FC5" transform="translate(5,7)"/>
<path d="M0 0 C0.33 0 0.66 0 1 0 C2.82246564 5.66406587 3.51917153 9.90917814 1.0703125 15.46875 C-0 17 -0 17 -2.6875 18 C-3.450625 18 -4.21375 18 -5 18 C-5.66 16.68 -6.32 15.36 -7 14 C-6.360625 13.855625 -5.72125 13.71125 -5.0625 13.5625 C-3.02454854 13.18992819 -3.02454854 13.18992819 -2 12 C-1.60430892 9.98688551 -1.25747809 7.96402792 -0.9375 5.9375 C-0.76089844 4.83277344 -0.58429687 3.72804688 -0.40234375 2.58984375 C-0.26957031 1.73519531 -0.13679688 0.88054688 0 0 Z " fill="#388DAF" transform="translate(28,8)"/>
<path d="M0 0 C1.32 0.33 2.64 0.66 4 1 C4 1.66 4 2.32 4 3 C5.65 3 7.3 3 9 3 C9.33 2.34 9.66 1.68 10 1 C10.66 2.98 11.32 4.96 12 7 C10.68 8.32 9.36 9.64 8 11 C4.99587837 9.49793919 4.45358301 6.96530935 3 4 C2.03465478 2.64136599 1.04722851 1.29656863 0 0 Z " fill="#2B88AD" transform="translate(11,24)"/>
<path d="M0 0 C-0.185625 0.804375 -0.37125 1.60875 -0.5625 2.4375 C-0.7790625 3.7059375 -0.7790625 3.7059375 -1 5 C-0.67 5.33 -0.34 5.66 0 6 C0.04063832 7.66617115 0.042721 9.33388095 0 11 C-2.475 10.01 -2.475 10.01 -5 9 C-5 6.36 -5 3.72 -5 1 C-3 0 -3 0 0 0 Z " fill="#5FC1D4" transform="translate(16,7)"/>
<path d="M0 0 C1.32 0 2.64 0 4 0 C4.66 0.66 5.32 1.32 6 2 C6.66 1.67 7.32 1.34 8 1 C7.67 2.32 7.34 3.64 7 5 C5.68 5.33 4.36 5.66 3 6 C2.67 5.34 2.34 4.68 2 4 C-0.02463255 3.34786708 -0.02463255 3.34786708 -2 3 C-1.34 2.01 -0.68 1.02 0 0 Z " fill="#54B0CC" transform="translate(18,23)"/>
<path d="M0 0 C-0.33 0.99 -0.66 1.98 -1 3 C-2.77734375 3.80078125 -2.77734375 3.80078125 -4.9375 4.3125 C-5.64777344 4.49425781 -6.35804687 4.67601562 -7.08984375 4.86328125 C-8.03537109 4.93095703 -8.03537109 4.93095703 -9 5 C-9.66 4.34 -10.32 3.68 -11 3 C-10 1 -10 1 -7.1875 -0.1875 C-4.14038924 -0.96421451 -2.86250637 -1.10096399 0 0 Z " fill="#7EC2E1" transform="translate(16,3)"/>
<path d="M0 0 C0.66 0 1.32 0 2 0 C2 0.66 2 1.32 2 2 C2.66 2 3.32 2 4 2 C4.33 3.98 4.66 5.96 5 8 C3.68 8 2.36 8 1 8 C1 6.02 1 4.04 1 2 C0.34 1.67 -0.32 1.34 -1 1 C-0.67 0.67 -0.34 0.34 0 0 Z M2 5 C2.33 5.66 2.66 6.32 3 7 C3.33 6.34 3.66 5.68 4 5 C3.34 5 2.68 5 2 5 Z " fill="#53D1DF" transform="translate(15,11)"/>
<path d="M0 0 C-0.33 0.99 -0.66 1.98 -1 3 C-3.5625 4.1875 -3.5625 4.1875 -6 5 C-6 3.35 -6 1.7 -6 0 C-3.50907189 -1.24546405 -2.58919267 -0.7767578 0 0 Z " fill="#4980B5" transform="translate(23,30)"/>
<path d="M0 0 C0.99 0.33 1.98 0.66 3 1 C2.01 1.33 1.02 1.66 0 2 C0.33 3.32 0.66 4.64 1 6 C-0.32 6.33 -1.64 6.66 -3 7 C-2.625 4.0625 -2.625 4.0625 -2 1 C-1.34 0.67 -0.68 0.34 0 0 Z " fill="#3396BA" transform="translate(11,6)"/>
<path d="M0 0 C1.65 0 3.3 0 5 0 C5 1.98 5 3.96 5 6 C4.34 6 3.68 6 3 6 C1 3 1 3 0 0 Z " fill="#69C2D4" transform="translate(22,14)"/>
<path d="M0 0 C0.33 0 0.66 0 1 0 C1 3.3 1 6.6 1 10 C0.67 10 0.34 10 0 10 C0 6.7 0 3.4 0 0 Z " fill="#3FBFCB" transform="translate(3,7)"/>
<path d="M0 0 C0.33 0 0.66 0 1 0 C1 2.97 1 5.94 1 9 C0.67 9 0.34 9 0 9 C0 6.03 0 3.06 0 0 Z " fill="#62D4E2" transform="translate(32,7)"/>
<path d="M0 0 C1 4 1 4 1 4 Z " fill="#3FDFDF" transform="translate(4,17)"/>
<path d="M0 0 C1 4 1 4 1 4 Z " fill="#1F5FDF" transform="translate(31,17)"/>
<path d="M0 0 C0.33 0.66 0.66 1.32 1 2 C0.34 1.67 -0.32 1.34 -1 1 C-0.67 0.67 -0.34 0.34 0 0 Z " fill="#7F7F7F" transform="translate(25,28)"/>
<path d="" fill="#7FFFFF" transform="translate(0,0)"/>
<path d="" fill="#00BFBF" transform="translate(0,0)"/>
<path d="M0 0 C2 1 2 1 2 1 Z " fill="#6AD4FF" transform="translate(19,1)"/>
<path d="M0 0 C2 1 2 1 2 1 Z " fill="#BFBFFF" transform="translate(15,1)"/>
<path d="M0 0 C2 1 2 1 2 1 Z " fill="#00FFFF" transform="translate(17,0)"/>
<path d="" fill="#00FFFF" transform="translate(0,0)"/>
<path d="" fill="#0000FF" transform="translate(0,0)"/>
<path d="" fill="#7F7FFF" transform="translate(0,0)"/>
<path d="" fill="#7F7F7F" transform="translate(0,0)"/>
<path d="" fill="#7F7F7F" transform="translate(0,0)"/>
<path d="" fill="#FFFFFF" transform="translate(0,0)"/>
<path d="" fill="#00FFFF" transform="translate(0,0)"/>
<path d="" fill="#00FFFF" transform="translate(0,0)"/>
<path d="" fill="#000000" transform="translate(0,0)"/>
<path d="" fill="#00FFFF" transform="translate(0,0)"/>
<path d="" fill="#00FFFF" transform="translate(0,0)"/>
<path d="" fill="#00FFFF" transform="translate(0,0)"/>
<path d="" fill="#00FFFF" transform="translate(0,0)"/>
</svg>
